<svg xmlns:svg="http://www.w3.org/2000/svg" xmlns="http://www.w3.org/2000/svg" version="1.1" width="96" height="96" xml:space="preserve"><defs><clipPath clipPathUnits="userSpaceOnUse"><path d="M0 576 576 576 576 0 0 0 0 576z"/></clipPath></defs><g transform="matrix(1.25,0,0,-1.25,0,96)"><path d="m57.62 66.57c-0.42 0-0.82-0.05-1.2-0.16C56.03 66.3 55.66 66.14 55.32 65.94c-0.34-0.2-0.65-0.44-0.93-0.72-0.28-0.28-0.52-0.59-0.71-0.92-0.2-0.34-0.35-0.7-0.46-1.1-0.11-0.39-0.16-0.79-0.16-1.2 0-0.62 0.12-1.22 0.35-1.76 0.24-0.55 0.57-1.04 0.98-1.45 0.41-0.41 0.9-0.74 1.46-0.98 0.55-0.24 1.14-0.35 1.76-0.35 0.41 0 0.82 0.05 1.21 0.16 0.39 0.11 0.75 0.26 1.09 0.46 0.34 0.2 0.65 0.44 0.92 0.72 0.28 0.28 0.52 0.59 0.72 0.92 0.2 0.34 0.35 0.7 0.46 1.09 0.11 0.38 0.16 0.78 0.16 1.2 0 0.62-0.12 1.21-0.36 1.76-0.24 0.56-0.57 1.05-0.99 1.46-0.41 0.41-0.9 0.74-1.46 0.99-0.55 0.24-1.14 0.36-1.76 0.36m0.07-20.97c-0.5 0-0.94 0.27-1.2 0.72-0.76 1.35-2.36 4.97-4.75 10.78-0.19-0.27-0.41-0.52-0.65-0.75-0.55-0.53-1.19-0.95-1.92-1.25-0.73-0.3-1.51-0.45-2.34-0.45-0.55 0-1.09 0.07-1.6 0.21-0.51 0.14-1 0.35-1.45 0.61-0.44 0.26-0.85 0.58-1.21 0.94-0.37 0.36-0.68 0.77-0.95 1.22C41.37 58.09 41.16 58.57 41.02 59.08 40.87 59.59 40.8 60.13 40.8 60.69l0 7.27c0 0.3 0.1 0.58 0.29 0.81 0.22 0.26 0.55 0.41 0.91 0.41l0.32 0c0.3 0 0.58-0.1 0.81-0.3 0.26-0.23 0.41-0.55 0.41-0.91l0-7.21c0-0.47 0.08-0.92 0.25-1.33 0.17-0.42 0.39-0.77 0.69-1.07 0.29-0.3 0.63-0.53 1.03-0.71 0.4-0.17 0.83-0.26 1.32-0.26 0.49 0 0.94 0.09 1.34 0.26 0.41 0.17 0.74 0.4 1.03 0.71 0.29 0.3 0.51 0.65 0.67 1.07 0.16 0.41 0.24 0.86 0.24 1.34l0 0.06 0.2 1.54c0.02 0.56 0.11 1.1 0.25 1.6 0.17 0.62 0.42 1.21 0.73 1.75 0.32 0.54 0.7 1.04 1.14 1.48 0.44 0.44 0.94 0.83 1.48 1.14 0.54 0.31 1.12 0.56 1.74 0.74 0.62 0.18 1.28 0.27 1.95 0.27 0.67 0 1.33-0.09 1.95-0.27 0.62-0.17 1.21-0.42 1.74-0.74 0.54-0.31 1.04-0.7 1.48-1.14 0.2-0.2 0.38-0.41 0.56-0.62 0.22 0.34 0.48 0.65 0.77 0.93 0.54 0.53 1.19 0.95 1.92 1.25 0.73 0.3 1.51 0.45 2.34 0.45 0.55 0 1.09-0.07 1.6-0.21 0.51-0.14 1-0.35 1.45-0.61 0.44-0.26 0.85-0.58 1.21-0.94 0.37-0.36 0.68-0.77 0.95-1.22 0.26-0.44 0.46-0.93 0.61-1.43C74.33 64.24 74.4 63.7 74.4 63.15l0-7.27c0-0.3-0.1-0.58-0.29-0.81-0.23-0.26-0.55-0.41-0.91-0.41l-0.32 0c-0.3 0-0.58 0.1-0.81 0.3-0.26 0.23-0.41 0.55-0.41 0.91l0 7.21c0 0.47-0.08 0.92-0.25 1.33-0.17 0.42-0.39 0.77-0.69 1.07-0.29 0.3-0.63 0.53-1.03 0.71-0.4 0.17-0.83 0.26-1.32 0.26-0.49 0-0.94-0.09-1.34-0.26-0.41-0.17-0.74-0.4-1.03-0.71-0.29-0.3-0.51-0.65-0.67-1.07-0.16-0.41-0.24-0.86-0.24-1.34l0-0.06-0.15-1.18c-0.01-0.62-0.1-1.22-0.26-1.78C64.48 59.41 60.26 48.81 58.88 46.33 58.63 45.87 58.18 45.6 57.68 45.6" fill="#ee3338"/><path d="m19.22 28.17c-0.42 0-0.82-0.05-1.2-0.16-0.39-0.11-0.75-0.27-1.09-0.46-0.34-0.2-0.65-0.44-0.93-0.72-0.28-0.28-0.52-0.59-0.71-0.92-0.2-0.34-0.35-0.7-0.46-1.1-0.11-0.39-0.16-0.79-0.16-1.2 0-0.62 0.12-1.22 0.35-1.76 0.24-0.55 0.57-1.04 0.98-1.45 0.41-0.41 0.9-0.74 1.46-0.98 0.55-0.24 1.14-0.35 1.76-0.35 0.41 0 0.82 0.05 1.21 0.16 0.39 0.11 0.75 0.26 1.09 0.46 0.34 0.2 0.65 0.44 0.92 0.72 0.28 0.28 0.52 0.59 0.72 0.92 0.2 0.34 0.35 0.7 0.46 1.09 0.11 0.38 0.16 0.78 0.16 1.2 0 0.62-0.12 1.21-0.36 1.76-0.24 0.56-0.57 1.05-0.99 1.46-0.41 0.41-0.9 0.74-1.46 0.99-0.55 0.24-1.14 0.36-1.76 0.36M19.28 7.2c-0.5 0-0.94 0.27-1.2 0.72-0.76 1.35-2.36 4.97-4.75 10.78-0.19-0.27-0.41-0.52-0.65-0.75-0.55-0.53-1.19-0.95-1.92-1.25-0.73-0.3-1.51-0.45-2.34-0.45-0.55 0-1.09 0.07-1.6 0.21-0.51 0.14-1 0.35-1.45 0.61C4.94 17.35 4.53 17.66 4.17 18.02 3.8 18.39 3.49 18.8 3.23 19.25 2.97 19.69 2.76 20.17 2.62 20.68 2.47 21.19 2.4 21.73 2.4 22.29l0 7.27c0 0.3 0.1 0.58 0.29 0.81 0.22 0.26 0.55 0.41 0.91 0.41l0.32 0c0.3 0 0.58-0.1 0.81-0.3C5 30.24 5.15 29.92 5.15 29.56l0-7.21c0-0.47 0.08-0.92 0.25-1.33 0.17-0.42 0.39-0.77 0.69-1.07 0.29-0.3 0.63-0.53 1.03-0.71 0.4-0.17 0.83-0.26 1.32-0.26 0.49 0 0.94 0.09 1.34 0.26 0.41 0.17 0.74 0.4 1.03 0.71 0.29 0.3 0.51 0.65 0.67 1.07 0.16 0.41 0.24 0.86 0.24 1.34l0 0.06 0.2 1.54c0.02 0.56 0.11 1.1 0.25 1.6 0.17 0.62 0.42 1.21 0.73 1.75 0.32 0.54 0.7 1.04 1.14 1.48 0.44 0.44 0.94 0.83 1.48 1.14 0.54 0.31 1.12 0.56 1.74 0.74 0.62 0.18 1.28 0.27 1.95 0.27 0.67 0 1.33-0.09 1.95-0.27 0.62-0.17 1.21-0.42 1.74-0.74 0.54-0.31 1.04-0.7 1.48-1.14 0.2-0.2 0.38-0.41 0.56-0.62 0.22 0.34 0.48 0.65 0.77 0.93 0.54 0.53 1.19 0.95 1.92 1.25 0.73 0.3 1.51 0.45 2.34 0.45 0.55 0 1.09-0.07 1.6-0.21 0.51-0.14 1-0.35 1.45-0.61 0.44-0.26 0.85-0.58 1.21-0.94 0.37-0.36 0.68-0.77 0.95-1.22 0.26-0.44 0.46-0.93 0.61-1.43C35.93 25.84 36 25.3 36 24.75l0-7.27c0-0.3-0.1-0.58-0.29-0.81-0.23-0.26-0.55-0.41-0.91-0.41l-0.32 0c-0.3 0-0.58 0.1-0.81 0.3-0.26 0.23-0.41 0.55-0.41 0.91l0 7.21c0 0.47-0.08 0.92-0.25 1.33-0.17 0.42-0.39 0.77-0.69 1.07-0.29 0.3-0.63 0.53-1.03 0.71-0.4 0.17-0.83 0.26-1.32 0.26-0.49 0-0.94-0.09-1.34-0.26-0.41-0.17-0.74-0.4-1.03-0.71-0.29-0.3-0.51-0.65-0.67-1.07-0.16-0.41-0.24-0.86-0.24-1.34l0-0.06-0.15-1.18c-0.01-0.62-0.1-1.22-0.26-1.78C26.08 21.01 21.86 10.41 20.48 7.93 20.23 7.47 19.78 7.2 19.28 7.2" fill="#a7a9ac"/><path d="m57.62 28.17c-0.42 0-0.82-0.05-1.2-0.16-0.39-0.11-0.75-0.27-1.09-0.46-0.34-0.2-0.65-0.44-0.93-0.72-0.28-0.28-0.52-0.59-0.71-0.92-0.2-0.34-0.35-0.7-0.46-1.1-0.11-0.39-0.16-0.79-0.16-1.2 0-0.62 0.12-1.22 0.35-1.76 0.24-0.55 0.57-1.04 0.98-1.45 0.41-0.41 0.9-0.74 1.46-0.98 0.55-0.24 1.14-0.35 1.76-0.35 0.41 0 0.82 0.05 1.21 0.16 0.39 0.11 0.75 0.26 1.09 0.46 0.34 0.2 0.65 0.44 0.92 0.72 0.28 0.28 0.52 0.59 0.72 0.92 0.2 0.34 0.35 0.7 0.46 1.09 0.11 0.38 0.16 0.78 0.16 1.2 0 0.62-0.12 1.21-0.36 1.76-0.24 0.56-0.57 1.05-0.99 1.46-0.41 0.41-0.9 0.74-1.46 0.99-0.55 0.24-1.14 0.36-1.76 0.36m0.07-20.97c-0.5 0-0.94 0.27-1.2 0.72-0.76 1.35-2.36 4.97-4.75 10.78-0.19-0.27-0.41-0.52-0.65-0.75-0.55-0.53-1.19-0.95-1.92-1.25-0.73-0.3-1.51-0.45-2.34-0.45-0.55 0-1.09 0.07-1.6 0.21-0.51 0.14-1 0.35-1.45 0.61-0.44 0.26-0.85 0.58-1.21 0.94-0.37 0.36-0.68 0.77-0.95 1.22-0.26 0.44-0.46 0.93-0.61 1.43C40.87 21.19 40.8 21.73 40.8 22.29l0 7.27c0 0.3 0.1 0.58 0.29 0.81 0.22 0.26 0.55 0.41 0.91 0.41l0.32 0c0.3 0 0.58-0.1 0.81-0.3 0.26-0.23 0.41-0.55 0.41-0.91l0-7.21c0-0.47 0.08-0.92 0.25-1.33 0.17-0.42 0.39-0.77 0.69-1.07 0.29-0.3 0.63-0.53 1.03-0.71 0.4-0.17 0.83-0.26 1.32-0.26 0.49 0 0.94 0.09 1.34 0.26 0.41 0.17 0.74 0.4 1.03 0.71 0.29 0.3 0.51 0.65 0.67 1.07 0.16 0.41 0.24 0.86 0.24 1.34l0 0.06 0.2 1.54c0.02 0.56 0.11 1.1 0.25 1.6 0.17 0.62 0.42 1.21 0.73 1.75 0.32 0.54 0.7 1.04 1.14 1.48 0.44 0.44 0.94 0.83 1.48 1.14 0.54 0.31 1.12 0.56 1.74 0.74 0.62 0.18 1.28 0.27 1.95 0.27 0.67 0 1.33-0.09 1.95-0.27 0.62-0.17 1.21-0.42 1.74-0.74 0.54-0.31 1.04-0.7 1.48-1.14 0.2-0.2 0.38-0.41 0.56-0.62 0.22 0.34 0.48 0.65 0.77 0.93 0.54 0.53 1.19 0.95 1.92 1.25 0.73 0.3 1.51 0.45 2.34 0.45 0.55 0 1.09-0.07 1.6-0.21 0.51-0.14 1-0.35 1.45-0.61 0.44-0.26 0.85-0.58 1.21-0.94 0.37-0.36 0.68-0.77 0.95-1.22 0.26-0.44 0.46-0.93 0.61-1.43C74.33 25.84 74.4 25.3 74.4 24.75l0-7.27c0-0.3-0.1-0.58-0.29-0.81-0.23-0.26-0.55-0.41-0.91-0.41l-0.32 0c-0.3 0-0.58 0.1-0.81 0.3-0.26 0.23-0.41 0.55-0.41 0.91l0 7.21c0 0.47-0.08 0.92-0.25 1.33-0.17 0.42-0.39 0.77-0.69 1.07-0.29 0.3-0.63 0.53-1.03 0.71-0.4 0.17-0.83 0.26-1.32 0.26-0.49 0-0.94-0.09-1.34-0.26-0.41-0.17-0.74-0.4-1.03-0.71-0.29-0.3-0.51-0.65-0.67-1.07-0.16-0.41-0.24-0.86-0.24-1.34l0-0.06-0.15-1.18c-0.01-0.62-0.1-1.22-0.26-1.78C64.48 21.01 60.26 10.41 58.88 7.93 58.63 7.47 58.18 7.2 57.68 7.2" style="fill:#2bb673;stroke-width:0.8;stroke:#fff"/><path d="m19.22 66.57c-0.42 0-0.82-0.05-1.2-0.16C17.63 66.3 17.26 66.14 16.92 65.94c-0.34-0.2-0.65-0.44-0.93-0.72-0.28-0.28-0.52-0.59-0.71-0.92-0.2-0.34-0.35-0.7-0.46-1.1-0.11-0.39-0.16-0.79-0.16-1.2 0-0.62 0.12-1.22 0.35-1.76 0.24-0.55 0.57-1.04 0.98-1.45 0.41-0.41 0.9-0.74 1.46-0.98 0.55-0.24 1.14-0.35 1.76-0.35 0.41 0 0.82 0.05 1.21 0.16 0.39 0.11 0.75 0.26 1.09 0.46 0.34 0.2 0.65 0.44 0.92 0.72 0.28 0.28 0.52 0.59 0.72 0.92 0.2 0.34 0.35 0.7 0.46 1.09 0.11 0.38 0.16 0.78 0.16 1.2 0 0.62-0.12 1.21-0.36 1.76-0.24 0.56-0.57 1.05-0.99 1.46-0.41 0.41-0.9 0.74-1.46 0.99-0.55 0.24-1.14 0.36-1.76 0.36m0.07-20.97c-0.5 0-0.94 0.27-1.2 0.72-0.76 1.35-2.36 4.97-4.75 10.78-0.19-0.27-0.41-0.52-0.65-0.75-0.55-0.53-1.19-0.95-1.92-1.25-0.73-0.3-1.51-0.45-2.34-0.45-0.55 0-1.09 0.07-1.6 0.21-0.51 0.14-1 0.35-1.45 0.61C4.94 55.75 4.53 56.06 4.17 56.42 3.8 56.79 3.49 57.2 3.23 57.65 2.97 58.09 2.76 58.57 2.62 59.08 2.47 59.59 2.4 60.13 2.4 60.69l0 7.27c0 0.3 0.1 0.58 0.29 0.81 0.22 0.26 0.55 0.41 0.91 0.41l0.32 0c0.3 0 0.58-0.1 0.81-0.3C5 68.64 5.15 68.32 5.15 67.96l0-7.21c0-0.47 0.08-0.92 0.25-1.33 0.17-0.42 0.39-0.77 0.69-1.07 0.29-0.3 0.63-0.53 1.03-0.71 0.4-0.17 0.83-0.26 1.32-0.26 0.49 0 0.94 0.09 1.34 0.26 0.41 0.17 0.74 0.4 1.03 0.71 0.29 0.3 0.51 0.65 0.67 1.07 0.16 0.41 0.24 0.86 0.24 1.34l0 0.06 0.2 1.54c0.02 0.56 0.11 1.1 0.25 1.6 0.17 0.62 0.42 1.21 0.73 1.75 0.32 0.54 0.7 1.04 1.14 1.48 0.44 0.44 0.94 0.83 1.48 1.14 0.54 0.31 1.12 0.56 1.74 0.74 0.62 0.18 1.28 0.27 1.95 0.27 0.67 0 1.33-0.09 1.95-0.27 0.62-0.17 1.21-0.42 1.74-0.74 0.54-0.31 1.04-0.7 1.48-1.14 0.2-0.2 0.38-0.41 0.56-0.62 0.22 0.34 0.48 0.65 0.77 0.93 0.54 0.53 1.19 0.95 1.92 1.25 0.73 0.3 1.51 0.45 2.34 0.45 0.55 0 1.09-0.07 1.6-0.21 0.51-0.14 1-0.35 1.45-0.61 0.44-0.26 0.85-0.58 1.21-0.94 0.37-0.36 0.68-0.77 0.95-1.22 0.26-0.44 0.46-0.93 0.61-1.43C35.93 64.24 36 63.7 36 63.15l0-7.27c0-0.3-0.1-0.58-0.29-0.81-0.23-0.26-0.55-0.41-0.91-0.41l-0.32 0c-0.3 0-0.58 0.1-0.81 0.3-0.26 0.23-0.41 0.55-0.41 0.91l0 7.21c0 0.47-0.08 0.92-0.25 1.33-0.17 0.42-0.39 0.77-0.69 1.07-0.29 0.3-0.63 0.53-1.03 0.71-0.4 0.17-0.83 0.26-1.32 0.26-0.49 0-0.94-0.09-1.34-0.26-0.41-0.17-0.74-0.4-1.03-0.71-0.29-0.3-0.51-0.65-0.67-1.07-0.16-0.41-0.24-0.86-0.24-1.34l0-0.06-0.15-1.18c-0.01-0.62-0.1-1.22-0.26-1.78C26.08 59.41 21.86 48.81 20.48 46.33 20.23 45.87 19.78 45.6 19.28 45.6" style="fill:#00aeef;stroke-width:0.8;stroke:#fff"/></g></svg>
