<svg xmlns:svg="http://www.w3.org/2000/svg" xmlns="http://www.w3.org/2000/svg" version="1.1" width="495" height="120" xml:space="preserve"><g transform="matrix(1.25,0,0,-1.25,-117.2945,423.55325)"><path d="M392.8 6C391.3 6 390.1 6.5 389 7.6 388 8.6 387.5 9.9 387.5 11.3 387.5 12.8 388 14.1 389 15.1 390.1 16.2 391.3 16.7 392.8 16.7 394.3 16.7 395.5 16.2 396.6 15.1 397.6 14.1 398.2 12.8 398.2 11.3 398.2 9.9 397.6 8.6 396.6 7.6 395.5 6.5 394.3 6 392.8 6zM87.1 28.1C85 28.1 83 28.4 81.1 29 79.2 29.5 77.4 30.3 75.8 31.3 74.1 32.2 72.5 33.3 71.2 34.7 69.8 36 68.5 37.4 67.5 38.9L67.3 30.5C67.3 30.1 67.1 29.8 66.9 29.5 66.6 29.3 66.3 29.2 65.9 29.2L62.3 29.2C61.7 29.2 61.2 29.4 60.9 29.7 60.5 30.1 60.4 30.6 60.4 31.2L60.4 87.5C60.4 89 61.2 89.7 62.7 89.7L65.3 89.7C66.8 89.7 67.5 89 67.5 87.5L67.5 52.8C67.6 50.3 68.2 48 69.3 45.9 70.3 43.7 71.7 41.9 73.4 40.3 75.1 38.7 77.1 37.5 79.3 36.6 81.6 35.7 83.9 35.2 86.4 35.2 88.9 35.2 91.3 35.7 93.5 36.6 95.7 37.6 97.6 38.9 99.3 40.5 100.9 42.1 102.3 44.1 103.3 46.3 104.2 48.5 104.7 50.9 104.8 53.4L104.8 87.3C104.8 88.1 105 88.7 105.3 89.1 105.6 89.5 106.2 89.7 107 89.7L109.5 89.7C110.3 89.7 110.9 89.5 111.3 89.1 111.7 88.7 111.9 88.1 111.9 87.3L111.9 53.5C111.9 50 111.3 46.7 110 43.6 108.8 40.5 107 37.8 104.8 35.5 102.6 33.2 100 31.4 96.9 30.1 93.9 28.8 90.7 28.1 87.1 28.1zM361.5 28.1C359.4 28.1 357.4 28.4 355.5 29 353.6 29.5 351.8 30.3 350.2 31.3 348.5 32.2 346.9 33.3 345.5 34.7 344.1 36 342.9 37.4 341.9 38.9L341.7 30.5C341.7 30.1 341.5 29.8 341.3 29.5 341 29.3 340.7 29.2 340.3 29.2L336.7 29.2C336.1 29.2 335.6 29.4 335.3 29.7 334.9 30.1 334.8 30.6 334.8 31.2L334.8 87.5C334.8 89 335.5 89.7 337.1 89.7L339.6 89.7C341.1 89.7 341.9 89 341.9 87.5L341.9 52.8C342 50.3 342.6 48 343.7 45.9 344.7 43.7 346.1 41.9 347.8 40.3 349.5 38.7 351.5 37.5 353.8 36.6 356 35.7 358.3 35.2 360.8 35.2 363.3 35.2 365.7 35.7 367.9 36.6 370.1 37.6 372 38.9 373.7 40.5 375.3 42.1 376.7 44.1 377.7 46.3 378.6 48.5 379.1 50.9 379.2 53.4L379.2 87.3C379.2 88.1 379.3 88.7 379.7 89.1 380 89.5 380.6 89.7 381.4 89.7L383.9 89.7C384.6 89.7 385.2 89.5 385.7 89.1 386.1 88.7 386.3 88.1 386.3 87.3L386.3 53.5C386.3 50 385.7 46.7 384.4 43.6 383.1 40.5 381.4 37.8 379.2 35.5 377 33.2 374.4 31.4 371.3 30.1 368.3 28.8 365.1 28.1 361.5 28.1zM145.7 28.2C141.3 28.2 137.3 29 133.4 30.7 129.6 32.3 126.3 34.5 123.5 37.4 120.6 40.2 118.4 43.6 116.8 47.4 115.1 51.2 114.3 55.3 114.3 59.7 114.3 64 115.1 68.1 116.8 71.9 118.4 75.8 120.6 79.1 123.5 81.9 126.3 84.8 129.6 87 133.4 88.7 137.3 90.3 141.3 91.1 145.7 91.1 150 91.1 154.1 90.3 157.9 88.7 161.8 87 165.1 84.8 168 81.9 170.8 79.1 173.1 75.8 174.7 71.9 176.4 68.1 177.2 64 177.2 59.7 177.2 55.3 176.4 51.2 174.7 47.4 173.1 43.6 170.8 40.2 168 37.4 165.1 34.5 161.8 32.3 157.9 30.7 154.1 29 150 28.2 145.7 28.2zM239.9 28.2C235.6 28.2 231.7 29 228.1 30.7 224.5 32.3 221.4 34.5 218.8 37.4 216.1 40.3 214 43.6 212.5 47.5 211 51.3 210.3 55.4 210.3 59.8 210.3 64.1 211 68.2 212.6 72 214.1 75.8 216.2 79.1 218.8 82 221.5 84.8 224.6 87 228.2 88.7 231.8 90.3 235.7 91.1 239.9 91.1 242.5 91.1 244.9 90.8 247.3 90.2 249.7 89.6 251.9 88.7 253.9 87.5 255.9 86.4 257.7 84.9 259.2 83.2 260.7 81.5 261.8 79.5 262.6 77.3L262.6 83.5C262.6 87.3 262 90.7 260.7 93.6 259.4 96.5 257.8 98.9 255.7 100.9 253.5 102.8 251.1 104.3 248.4 105.3 245.7 106.3 242.9 106.8 240 106.8 238.3 106.8 236.6 106.5 234.8 106 233.1 105.5 231.4 104.9 229.8 104.2 229.4 104 228.9 103.8 228.5 103.6 228.1 103.3 227.7 103.2 227.3 103.1 226.9 103 226.6 103 226.3 103.1 226 103.2 225.7 103.4 225.5 103.8 225.4 103.9 225.2 104.2 224.9 104.6 224.6 105 224.3 105.4 224 105.8 223.7 106.3 223.5 106.7 223.2 107.1 223 107.5 222.8 107.8 222.8 108 222.8 108.4 223 108.7 223.2 108.9 223.5 109.2 223.8 109.4 224.4 109.7L224.3 109.7C226.7 111 229.1 112.1 231.7 112.8 234.2 113.6 237.1 114 240.3 114 244.2 114 247.9 113.4 251.4 112.1 255 110.8 258.1 108.8 260.8 106.3 263.5 103.7 265.7 100.4 267.3 96.5 269 92.6 269.8 88 269.8 82.7 269.8 82.2 269.8 81.7 269.8 81.2L269.8 79.8 269.8 76.7 269.8 76.5 269.8 31.9C269.8 31.1 269.6 30.5 269.1 30.1 268.7 29.6 268 29.4 267.3 29.4L265.5 29.4C264.7 29.4 264.1 29.6 263.8 30.1 263.4 30.5 263.2 31.1 263.1 31.9L262.9 42.5C262.3 40.4 261.2 38.5 259.8 36.7 258.3 35 256.5 33.5 254.5 32.2 252.5 30.9 250.2 29.9 247.7 29.3 245.2 28.6 242.6 28.2 239.9 28.2zM302 28.2C297.8 28.2 293.9 29 290.3 30.7 286.7 32.3 283.5 34.5 280.9 37.4 278.2 40.3 276.2 43.6 274.7 47.5 273.2 51.3 272.4 55.4 272.4 59.8 272.4 64.1 273.2 68.2 274.7 72 276.2 75.8 278.3 79.1 280.9 82 283.6 84.8 286.7 87 290.3 88.7 294 90.3 297.8 91.1 302 91.1 304.7 91.1 307.2 90.8 309.6 90.1 312 89.5 314.1 88.5 316.1 87.3 318 86.1 319.7 84.6 321.2 82.8 322.6 81 323.7 79 324.4 76.7L324.4 87.4C324.4 89 325.2 89.8 326.9 89.8L328.8 89.8C329.6 89.8 330.2 89.6 330.7 89.3 331.1 88.9 331.4 88.3 331.4 87.6L331.4 31.9C331.4 31.1 331.1 30.5 330.7 30.1 330.2 29.6 329.6 29.4 328.8 29.4L327.1 29.4C326.2 29.4 325.7 29.6 325.3 30.1 324.9 30.5 324.7 31.1 324.7 31.9L324.4 42.5C323.8 40.4 322.8 38.5 321.4 36.7 320 35 318.3 33.5 316.3 32.2 314.4 30.9 312.2 29.9 309.8 29.3 307.3 28.6 304.7 28.2 302 28.2zM202.9 28.5C201 28.5 199.2 28.8 197.5 29.3 195.8 29.7 194.2 30.4 192.9 31.3 191.5 32.2 190.3 33.3 189.3 34.5 188.2 35.8 187.4 37.1 186.8 38.6L186.8 34.7 186.8 32.2C186.8 30.3 185.8 29.3 183.8 29.3L182.5 29.3C180.7 29.3 179.8 30.3 179.8 32.2L179.8 86.9 179.8 87.5C179.8 89 180.5 89.7 182.1 89.7L184.1 89.7 184.6 89.7C186.1 89.7 186.9 89 186.9 87.5L186.8 54.2C186.8 51.8 187.2 49.5 188 47.3 188.8 45 189.9 43.1 191.3 41.3 192.7 39.6 194.3 38.2 196.2 37.1 198.1 36.1 200.2 35.6 202.5 35.6 204.1 35.6 205.7 35.9 207.3 36.5 208.8 37.1 210.2 37.8 211.4 38.5 211.6 38.7 211.8 38.8 212 38.8 212.2 38.8 212.5 38.8 212.8 38.8 213 38.8 213.4 38.7 213.7 38.3 214.1 38 214.4 37.6 214.8 37.1 215.1 36.6 215.4 36.1 215.7 35.6 215.9 35 216 34.6 216 34.2 216 33.5 215.6 32.8 214.7 32.1 213.8 31.4 212.7 30.8 211.3 30.3 210 29.7 208.6 29.3 207.1 29 205.5 28.7 204.2 28.5 202.9 28.5zM476.3 28.5C474.4 28.5 472.5 28.8 470.8 29.3 469.1 29.7 467.6 30.4 466.2 31.3 464.8 32.2 463.6 33.3 462.6 34.5 461.6 35.8 460.7 37.1 460.2 38.6L460.2 34.7 460.2 32.2C460.2 30.3 459.2 29.3 457.2 29.3L455.8 29.3C454 29.3 453.1 30.3 453.1 32.2L453.1 86.9 453.1 87.5C453.1 89 453.9 89.7 455.4 89.7L457.4 89.7 458 89.7C459.5 89.7 460.2 89 460.2 87.5L460.2 54.2C460.2 51.8 460.6 49.5 461.4 47.3 462.2 45 463.2 43.1 464.6 41.3 466 39.6 467.7 38.2 469.6 37.1 471.5 36.1 473.5 35.6 475.8 35.6 477.4 35.6 479 35.9 480.6 36.5 482.2 37.1 483.5 37.8 484.7 38.5 485 38.7 485.2 38.8 485.3 38.8 485.5 38.8 485.8 38.8 486.1 38.8 486.4 38.8 486.7 38.7 487.1 38.3 487.4 38 487.8 37.6 488.1 37.1 488.5 36.6 488.8 36.1 489 35.6 489.3 35 489.4 34.6 489.4 34.2 489.4 33.5 488.9 32.8 488 32.1 487.1 31.4 486 30.8 484.7 30.3 483.4 29.7 481.9 29.3 480.4 29 478.9 28.7 477.5 28.5 476.3 28.5zM8.4 29.4C7.7 29.4 7.1 29.6 6.7 30.1 6.2 30.5 6 31.1 6 31.9L6 65.8C6 69.3 6.6 72.6 7.9 75.7 9.1 78.8 10.8 81.5 13 83.8 15.2 86.1 17.8 87.8 20.8 89.2 23.7 90.5 27 91.1 30.5 91.1 32.6 91.1 34.6 90.8 36.6 90.3 38.5 89.8 40.3 89 42 88.1 43.7 87.1 45.3 86 46.6 84.7 48 83.3 49.2 81.9 50.2 80.3 50.2 81.5 50.2 82.7 50.3 83.9 50.3 85.1 50.4 86.2 50.5 87.4 50.5 88.1 50.7 88.7 51.1 89.1 51.5 89.5 52 89.7 52.8 89.7L54.7 89.7C55.4 89.7 55.9 89.5 56.3 89.1 56.8 88.7 57 88.1 57 87.4L57 31.7C57 30.2 56.2 29.4 54.6 29.4L52.4 29.4C50.9 29.4 50.2 30.2 50.2 31.7L50.2 66.1C50.2 68.7 49.7 71.1 48.7 73.3 47.7 75.5 46.4 77.4 44.7 79.1 43 80.8 41 82.1 38.7 83 36.4 83.9 34 84.4 31.5 84.4 28.8 84.4 26.3 83.9 24 83 21.7 82.1 19.8 80.8 18.1 79.1 16.5 77.4 15.2 75.5 14.3 73.3 13.4 71 12.9 68.6 12.8 66L12.8 31.8C12.8 31 12.7 30.4 12.3 30 12 29.6 11.4 29.4 10.6 29.4L8.4 29.4zM391.7 29.4C391 29.4 390.4 29.6 390 30 389.5 30.4 389.3 31 389.3 31.7L389.3 87.5C389.3 89 390.1 89.7 391.7 89.7L393.9 89.7C395.4 89.7 396.1 89 396.1 87.5L396.1 31.7C396.1 31 396 30.4 395.6 30 395.2 29.6 394.6 29.4 393.9 29.4L391.7 29.4zM404.5 29.4C402.9 29.4 402.2 30.2 402.2 31.7L402.2 33.9C402.2 35.5 402.9 36.3 404.5 36.3L438 36.3 399.6 86.3C399.4 86.6 399.2 86.9 399.1 87.1 398.9 87.4 398.9 87.6 398.9 87.8 398.9 88.5 399.1 89 399.6 89.3 400 89.6 400.5 89.7 401 89.7L448.8 89.7C449.5 89.7 450 89.5 450.4 89 450.8 88.6 451.1 88 451.1 87.4L451.1 85.3C451.1 83.7 450.3 82.9 448.8 82.9L410.6 82.9 449 32.9C449.2 32.5 449.3 32.2 449.5 32 449.7 31.7 449.8 31.4 449.8 31.2 449.8 30.4 449.5 29.9 448.8 29.7 448.2 29.5 447.7 29.4 447.3 29.4L404.5 29.4zM145.8 34.9C149.2 34.9 152.4 35.6 155.4 36.9 158.4 38.2 161 40 163.3 42.2 165.5 44.4 167.3 47 168.6 50.1 169.9 53.1 170.5 56.3 170.5 59.7 170.5 63.1 169.9 66.3 168.6 69.3 167.3 72.2 165.5 74.8 163.3 77.1 161 79.4 158.4 81.1 155.4 82.4 152.4 83.7 149.2 84.3 145.8 84.3 142.4 84.3 139.2 83.7 136.2 82.4 133.2 81.1 130.6 79.4 128.4 77.1 126.1 74.8 124.3 72.2 123 69.3 121.7 66.3 121.1 63.1 121.1 59.7 121.1 56.3 121.7 53.1 123 50.1 124.3 47 126.1 44.4 128.4 42.2 130.6 40 133.2 38.2 136.2 36.9 139.2 35.6 142.4 34.9 145.8 34.9zM239.9 35.1C243.2 35.1 246.2 35.8 249 37.1 251.8 38.4 254.3 40.2 256.3 42.4 258.4 44.7 259.9 47.3 261.1 50.3 262.2 53.3 262.8 56.4 262.8 59.8 262.8 63.2 262.2 66.4 261.1 69.4 259.9 72.3 258.3 74.9 256.3 77.1 254.2 79.3 251.7 81 248.9 82.3 246.1 83.6 243.1 84.2 239.9 84.2 236.6 84.2 233.6 83.6 230.8 82.3 228 81 225.6 79.2 223.6 77 221.6 74.8 220.1 72.2 218.9 69.3 217.8 66.3 217.3 63.1 217.3 59.8 217.3 56.4 217.8 53.2 218.9 50.2 220.1 47.2 221.6 44.6 223.6 42.4 225.6 40.1 228 38.4 230.8 37.1 233.5 35.8 236.5 35.1 239.9 35.1zM302 35.1C305.3 35.1 308.3 35.8 311.1 37.1 313.8 38.4 316.2 40.2 318.1 42.4 320.1 44.7 321.6 47.3 322.7 50.3 323.8 53.3 324.3 56.4 324.3 59.8 324.3 63.2 323.8 66.4 322.7 69.4 321.6 72.3 320 74.9 318.1 77.1 316.1 79.3 313.8 81 311 82.3 308.3 83.6 305.3 84.2 302 84.2 298.8 84.2 295.7 83.6 292.9 82.3 290.2 81 287.8 79.2 285.8 77 283.8 74.8 282.2 72.2 281.1 69.3 279.9 66.3 279.4 63.1 279.4 59.8 279.4 56.4 279.9 53.2 281.1 50.2 282.2 47.2 283.8 44.6 285.8 42.4 287.7 40.1 290.1 38.4 292.9 37.1 295.6 35.8 298.7 35.1 302 35.1z" transform="matrix(0.8,0,0,-0.8,93.8356,338.8426)" fill="#fff"/></g></svg>