<?xml version="1.0" encoding="UTF-8" standalone="no"?>
<!-- Created with Inkscape (http://www.inkscape.org/) -->

<svg
   xmlns:dc="http://purl.org/dc/elements/1.1/"
   xmlns:cc="http://creativecommons.org/ns#"
   xmlns:rdf="http://www.w3.org/1999/02/22-rdf-syntax-ns#"
   xmlns:svg="http://www.w3.org/2000/svg"
   xmlns="http://www.w3.org/2000/svg"
   xmlns:sodipodi="http://sodipodi.sourceforge.net/DTD/sodipodi-0.dtd"
   xmlns:inkscape="http://www.inkscape.org/namespaces/inkscape"
   id="svg2"
   version="1.1"
   inkscape:version="0.48.5 r10040"
   width="495"
   height="120"
   xml:space="preserve"
   sodipodi:docname="unorganizr_name.svg"><metadata
     id="metadata8"><rdf:RDF><cc:Work
         rdf:about=""><dc:format>image/svg+xml</dc:format><dc:type
           rdf:resource="http://purl.org/dc/dcmitype/StillImage" /></cc:Work></rdf:RDF></metadata><defs
     id="defs6" /><sodipodi:namedview
     pagecolor="#ffffff"
     bordercolor="#666666"
     borderopacity="1"
     objecttolerance="10"
     gridtolerance="10"
     guidetolerance="10"
     inkscape:pageopacity="0"
     inkscape:pageshadow="2"
     inkscape:window-width="1920"
     inkscape:window-height="1169"
     id="namedview4"
     showgrid="false"
     showguides="true"
     inkscape:guide-bbox="true"
     fit-margin-top="6"
     fit-margin-left="6"
     fit-margin-right="6"
     fit-margin-bottom="6"
     inkscape:zoom="1.3111111"
     inkscape:cx="-4.5072114"
     inkscape:cy="12.764894"
     inkscape:window-x="0"
     inkscape:window-y="0"
     inkscape:window-maximized="1"
     inkscape:current-layer="g10" /><g
     id="g10"
     inkscape:groupmode="layer"
     inkscape:label="unorganizr_name"
     transform="matrix(1.25,0,0,-1.25,-117.2945,423.55325)"><path
       style="fill:#3a3a3c;fill-opacity:1;fill-rule:nonzero;stroke:none"
       d="M 392.8125 5.96875 C 391.335 5.96875 390.07625 6.51625 389.03125 7.5625 C 387.98375 8.6075 387.46875 9.8675 387.46875 11.34375 C 387.46875 12.82 387.98375 14.07875 389.03125 15.125 C 390.07625 16.17 391.335 16.6875 392.8125 16.6875 C 394.2875 16.6875 395.54875 16.17 396.59375 15.125 C 397.64125 14.07875 398.15625 12.82 398.15625 11.34375 C 398.15625 9.8675 397.64125 8.6075 396.59375 7.5625 C 395.54875 6.51625 394.2875 5.96875 392.8125 5.96875 z M 87.125 28.125 C 85.0325 28.125 83.0325 28.415 81.125 28.96875 C 79.21875 29.5225 77.43 30.2875 75.75 31.25 C 74.06875 32.215 72.54875 33.34375 71.15625 34.65625 C 69.76125 35.9675 68.52375 37.38875 67.5 38.90625 L 67.34375 30.53125 C 67.3025 30.1225 67.1425 29.77625 66.875 29.53125 C 66.6075 29.28375 66.275 29.1875 65.90625 29.1875 L 62.28125 29.1875 C 61.66625 29.1875 61.2025 29.35 60.875 29.71875 C 60.545 30.0875 60.375 30.58375 60.375 31.15625 L 60.375 87.5 C 60.375 88.9775 61.15875 89.71875 62.71875 89.71875 L 65.25 89.71875 C 66.76625 89.71875 67.5 88.9775 67.5 87.5 L 67.5 52.84375 C 67.6225 50.34125 68.23625 48.02875 69.28125 45.875 C 70.3275 43.7225 71.68375 41.86 73.40625 40.28125 C 75.13 38.7025 77.1075 37.46625 79.34375 36.5625 C 81.5775 35.66125 83.94625 35.1875 86.40625 35.1875 C 88.90625 35.1875 91.25375 35.6825 93.46875 36.625 C 95.68375 37.56875 97.62125 38.86125 99.28125 40.5 C 100.9425 42.14125 102.265 44.0675 103.25 46.28125 C 104.23375 48.495 104.74 50.865 104.78125 53.40625 L 104.78125 87.3125 C 104.78125 88.13125 104.95125 88.73375 105.28125 89.125 C 105.60875 89.5125 106.18 89.71875 107 89.71875 L 109.53125 89.71875 C 110.27 89.71875 110.85 89.505 111.28125 89.09375 C 111.71125 88.6875 111.9375 88.0675 111.9375 87.25 L 111.9375 53.53125 C 111.9375 50.00625 111.30125 46.69 110.03125 43.59375 C 108.76 40.49875 106.995 37.79625 104.78125 35.5 C 102.56625 33.20375 99.95125 31.4075 96.9375 30.09375 C 93.9225 28.7825 90.65125 28.125 87.125 28.125 z M 361.53125 28.125 C 359.43625 28.125 357.44 28.415 355.53125 28.96875 C 353.62625 29.5225 351.83625 30.2875 350.15625 31.25 C 348.47375 32.215 346.9275 33.34375 345.53125 34.65625 C 344.14 35.9675 342.93125 37.38875 341.90625 38.90625 L 341.71875 30.53125 C 341.67375 30.1225 341.51375 29.77625 341.25 29.53125 C 340.98375 29.28375 340.6825 29.1875 340.3125 29.1875 L 336.6875 29.1875 C 336.0725 29.1875 335.57625 29.35 335.25 29.71875 C 334.92375 30.0875 334.78125 30.58375 334.78125 31.15625 L 334.78125 87.5 C 334.78125 88.9775 335.53625 89.71875 337.09375 89.71875 L 339.625 89.71875 C 341.145 89.71875 341.90625 88.9775 341.90625 87.5 L 341.90625 52.84375 C 342.02875 50.34125 342.60875 48.02875 343.65625 45.875 C 344.7 43.7225 346.09125 41.86 347.8125 40.28125 C 349.535 38.7025 351.5125 37.46625 353.75 36.5625 C 355.98125 35.66125 358.32125 35.1875 360.78125 35.1875 C 363.28 35.1875 365.66125 35.6825 367.875 36.625 C 370.0875 37.56875 372.025 38.86125 373.6875 40.5 C 375.3475 42.14125 376.67375 44.0675 377.65625 46.28125 C 378.64125 48.495 379.1475 50.865 379.1875 53.40625 L 379.1875 87.3125 C 379.1875 88.13125 379.33 88.73375 379.65625 89.125 C 379.98625 89.5125 380.585 89.71875 381.40625 89.71875 L 383.90625 89.71875 C 384.64625 89.71875 385.22375 89.505 385.65625 89.09375 C 386.08375 88.6875 386.3125 88.0675 386.3125 87.25 L 386.3125 53.53125 C 386.3125 50.00625 385.67875 46.69 384.40625 43.59375 C 383.1375 40.49875 381.40375 37.79625 379.1875 35.5 C 376.975 33.20375 374.355 31.4075 371.34375 30.09375 C 368.32875 28.7825 365.05625 28.125 361.53125 28.125 z M 145.6875 28.1875 C 141.34125 28.1875 137.25125 29.01625 133.4375 30.65625 C 129.6225 32.2975 126.29875 34.52625 123.46875 37.375 C 120.64 40.22625 118.39 43.5725 116.75 47.40625 C 115.11 51.24125 114.3125 55.3425 114.3125 59.6875 C 114.3125 64.0375 115.11 68.12625 116.75 71.9375 C 118.39 75.7525 120.64 79.05875 123.46875 81.90625 C 126.29875 84.76125 129.6225 87.02125 133.4375 88.65625 C 137.25125 90.3 141.34125 91.125 145.6875 91.125 C 150.03375 91.125 154.10375 90.3 157.9375 88.65625 C 161.7725 87.02125 165.11875 84.76125 167.96875 81.90625 C 170.81875 79.05875 173.0775 75.7525 174.71875 71.9375 C 176.3575 68.12625 177.15625 64.0375 177.15625 59.6875 C 177.15625 55.3425 176.3575 51.24125 174.71875 47.40625 C 173.0775 43.5725 170.81875 40.22625 167.96875 37.375 C 165.11875 34.52625 161.7725 32.2975 157.9375 30.65625 C 154.10375 29.01625 150.03375 28.1875 145.6875 28.1875 z M 239.875 28.1875 C 235.645 28.1875 231.73625 29.01625 228.125 30.65625 C 224.5175 32.2975 221.39375 34.535 218.75 37.40625 C 216.105 40.2775 214.0275 43.635 212.53125 47.46875 C 211.0325 51.30375 210.28125 55.4025 210.28125 59.75 C 210.28125 64.09875 211.045 68.18375 212.5625 72 C 214.08 75.81375 216.16625 79.14 218.8125 81.96875 C 221.45625 84.79875 224.57875 87.02 228.1875 88.65625 C 231.795 90.29875 235.68875 91.125 239.875 91.125 C 242.45625 91.125 244.93125 90.8025 247.3125 90.1875 C 249.68625 89.5725 251.8925 88.7 253.90625 87.53125 C 255.91125 86.3625 257.66125 84.90875 259.15625 83.1875 C 260.655 81.46375 261.80375 79.51625 262.625 77.34375 L 262.625 83.5 C 262.625 87.315 261.98625 90.65375 260.71875 93.5625 C 259.44875 96.47375 257.765 98.9275 255.65625 100.875 C 253.54125 102.82375 251.13125 104.2975 248.40625 105.28125 C 245.67625 106.265 242.86875 106.75 240 106.75 C 238.27875 106.75 236.55375 106.4925 234.8125 106 C 233.06625 105.50875 231.4 104.915 229.84375 104.21875 C 229.35 104.01375 228.91 103.785 228.5 103.5625 C 228.09 103.3375 227.68125 103.20625 227.3125 103.125 C 226.9425 103.0425 226.62 103.0425 226.3125 103.125 C 226.005 103.20625 225.7175 103.41125 225.46875 103.78125 C 225.3875 103.90625 225.2225 104.17375 224.9375 104.5625 C 224.64875 104.955 224.33875 105.36125 224.03125 105.8125 C 223.72375 106.26375 223.46375 106.715 223.21875 107.125 C 222.9725 107.5375 222.84375 107.82625 222.84375 108.03125 C 222.84375 108.40125 222.9725 108.71125 223.21875 108.9375 C 223.46375 109.16 223.8425 109.39875 224.375 109.6875 L 224.3125 109.6875 C 226.68875 110.99875 229.14125 112.06625 231.6875 112.84375 C 234.22875 113.625 237.115 114 240.3125 114 C 244.16875 114 247.86625 113.35375 251.4375 112.0625 C 255.005 110.77125 258.1375 108.8325 260.84375 106.25 C 263.5475 103.66625 265.72375 100.415 267.34375 96.5 C 268.9625 92.58125 269.78125 87.97625 269.78125 82.6875 C 269.81875 82.155 269.84375 81.67 269.84375 81.21875 L 269.84375 79.75 L 269.84375 76.71875 L 269.84375 76.53125 L 269.84375 31.9375 C 269.84375 31.1175 269.595 30.4925 269.125 30.0625 C 268.6525 29.63125 268.04625 29.40625 267.3125 29.40625 L 265.53125 29.40625 C 264.71375 29.40625 264.12 29.63125 263.75 30.0625 C 263.38 30.4925 263.165 31.1175 263.125 31.9375 L 262.875 42.46875 C 262.25625 40.3775 261.22625 38.4625 259.75 36.71875 C 258.27 34.97625 256.53 33.45875 254.5 32.1875 C 252.4675 30.91625 250.1825 29.9475 247.6875 29.25 C 245.1825 28.5525 242.57875 28.1875 239.875 28.1875 z M 302.03125 28.1875 C 297.805 28.1875 293.88875 29.01625 290.28125 30.65625 C 286.67375 32.2975 283.52 34.535 280.875 37.40625 C 278.23 40.2775 276.185 43.635 274.6875 47.46875 C 273.19125 51.30375 272.4375 55.4025 272.4375 59.75 C 272.4375 64.09875 273.2025 68.18375 274.71875 72 C 276.23625 75.81375 278.2925 79.14 280.9375 81.96875 C 283.58125 84.79875 286.735 87.02 290.34375 88.65625 C 293.955 90.29875 297.8475 91.125 302.03125 91.125 C 304.695 91.125 307.21375 90.78 309.59375 90.125 C 311.96875 89.47 314.11625 88.5425 316.0625 87.3125 C 318.01 86.0825 319.72125 84.56875 321.15625 82.78125 C 322.5925 81 323.66625 78.955 324.40625 76.65625 L 324.40625 87.375 C 324.40625 89.01875 325.2325 89.8125 326.875 89.8125 L 328.84375 89.8125 C 329.62375 89.8125 330.2375 89.64125 330.6875 89.25 C 331.13875 88.8625 331.375 88.3225 331.375 87.625 L 331.375 31.9375 C 331.375 31.1175 331.12875 30.4925 330.65625 30.0625 C 330.18375 29.63125 329.58 29.40625 328.84375 29.40625 L 327.0625 29.40625 C 326.2425 29.40625 325.65125 29.63125 325.28125 30.0625 C 324.9125 30.4925 324.6975 31.1175 324.65625 31.9375 L 324.40625 42.46875 C 323.79125 40.3775 322.7975 38.4625 321.40625 36.71875 C 320.01 34.97625 318.31125 33.45875 316.34375 32.1875 C 314.3725 30.91625 312.19 29.9475 309.75 29.25 C 307.31 28.5525 304.7375 28.1875 302.03125 28.1875 z M 202.9375 28.5 C 201.01125 28.5 199.20375 28.7575 197.5 29.25 C 195.79875 29.74 194.2475 30.4 192.875 31.28125 C 191.5 32.1625 190.29625 33.25 189.25 34.5 C 188.205 35.75125 187.41625 37.11875 186.84375 38.59375 L 186.84375 34.65625 L 186.84375 32.1875 C 186.84375 30.30125 185.82125 29.34375 183.8125 29.34375 L 182.46875 29.34375 C 180.66375 29.34375 179.75 30.30125 179.75 32.1875 L 179.75 86.875 L 179.75 87.5 C 179.75 88.97625 180.535 89.71875 182.09375 89.71875 L 184.0625 89.71875 L 184.625 89.71875 C 186.14125 89.71875 186.875 88.97625 186.875 87.5 L 186.84375 54.21875 C 186.84375 51.84125 187.2325 49.5175 188.03125 47.28125 C 188.83125 45.045 189.9075 43.05625 191.28125 41.3125 C 192.65375 39.57 194.3125 38.17 196.21875 37.125 C 198.125 36.08 200.20375 35.5625 202.5 35.5625 C 204.10125 35.5625 205.69125 35.885 207.25 36.5 C 208.80875 37.11625 210.185 37.795 211.375 38.53125 C 211.62 38.6975 211.8475 38.79375 212.03125 38.8125 C 212.21625 38.83375 212.4525 38.84375 212.78125 38.84375 C 213.02875 38.84375 213.35 38.6725 213.71875 38.34375 C 214.08875 38.015 214.43375 37.61625 214.78125 37.125 C 215.13 36.6325 215.44125 36.09625 215.6875 35.5625 C 215.93375 35.03 216.03125 34.56625 216.03125 34.15625 C 216.03125 33.46 215.59125 32.77 214.6875 32.09375 C 213.785 31.41625 212.675 30.81375 211.34375 30.28125 C 210.01 29.74875 208.57625 29.32875 207.0625 29 C 205.54375 28.6725 204.1675 28.5 202.9375 28.5 z M 476.28125 28.5 C 474.35125 28.5 472.54375 28.7575 470.84375 29.25 C 469.14125 29.74 467.59125 30.4 466.21875 31.28125 C 464.84375 32.1625 463.64 33.25 462.59375 34.5 C 461.55 35.75125 460.73125 37.11875 460.15625 38.59375 L 460.15625 34.65625 L 460.15625 32.1875 C 460.15625 30.30125 459.16375 29.34375 457.15625 29.34375 L 455.8125 29.34375 C 454.0075 29.34375 453.09375 30.30125 453.09375 32.1875 L 453.09375 86.875 L 453.09375 87.5 C 453.09375 88.97625 453.88 89.71875 455.4375 89.71875 L 457.40625 89.71875 L 457.96875 89.71875 C 459.485 89.71875 460.21875 88.97625 460.21875 87.5 L 460.15625 54.21875 C 460.15625 51.84125 460.57625 49.5175 461.375 47.28125 C 462.1775 45.045 463.2475 43.05625 464.625 41.3125 C 465.995 39.57 467.6575 38.17 469.5625 37.125 C 471.47 36.08 473.5475 35.5625 475.84375 35.5625 C 477.44375 35.5625 479.0375 35.885 480.59375 36.5 C 482.15125 37.11625 483.53125 37.795 484.71875 38.53125 C 484.96625 38.6975 485.16 38.79375 485.34375 38.8125 C 485.5275 38.83375 485.795 38.84375 486.125 38.84375 C 486.37 38.84375 486.6925 38.6725 487.0625 38.34375 C 487.4325 38.015 487.77625 37.61625 488.125 37.125 C 488.47375 36.6325 488.78625 36.09625 489.03125 35.5625 C 489.28 35.03 489.375 34.56625 489.375 34.15625 C 489.375 33.46 488.92875 32.77 488.03125 32.09375 C 487.12625 31.41625 486.02 30.81375 484.6875 30.28125 C 483.35375 29.74875 481.92125 29.32875 480.40625 29 C 478.88625 28.6725 477.50875 28.5 476.28125 28.5 z M 8.40625 29.40625 C 7.7075 29.40625 7.13625 29.6325 6.6875 30.0625 C 6.235 30.49375 6 31.095 6 31.875 L 6 65.78125 C 6 69.30875 6.62375 72.6225 7.875 75.71875 C 9.125 78.815 10.82625 81.50375 13 83.78125 C 15.17375 86.055 17.75625 87.8425 20.75 89.15625 C 23.7425 90.4675 27.00375 91.125 30.53125 91.125 C 32.62375 91.125 34.63625 90.845 36.5625 90.3125 C 38.49 89.77875 40.3275 89.025 42.03125 88.0625 C 43.73 87.1 45.25 85.96875 46.625 84.65625 C 47.99875 83.34375 49.1725 81.88 50.15625 80.28125 C 50.1975 81.4675 50.24 82.68375 50.28125 83.875 C 50.32125 85.065 50.3875 86.24875 50.46875 87.4375 C 50.51 88.13375 50.725 88.6875 51.09375 89.09375 C 51.46375 89.505 52.0125 89.71875 52.75 89.71875 L 54.65625 89.71875 C 55.35375 89.71875 55.91375 89.505 56.34375 89.09375 C 56.775 88.6875 57 88.13375 57 87.4375 L 57 31.6875 C 57 30.17125 56.1925 29.40625 54.59375 29.40625 L 52.4375 29.40625 C 50.92 29.40625 50.15625 30.17125 50.15625 31.6875 L 50.15625 66.09375 C 50.15625 68.675 49.6725 71.065 48.6875 73.28125 C 47.7025 75.495 46.3575 77.43375 44.65625 79.09375 C 42.95375 80.75625 40.96375 82.06 38.6875 83 C 36.4125 83.945 34.01125 84.40625 31.46875 84.40625 C 28.7625 84.40625 26.27625 83.945 24 83 C 21.72375 82.06 19.76375 80.75625 18.125 79.09375 C 16.48375 77.43375 15.20375 75.48625 14.28125 73.25 C 13.3575 71.015 12.85375 68.61375 12.8125 66.03125 L 12.8125 31.8125 C 12.8125 31.035 12.6725 30.4425 12.34375 30.03125 C 12.015 29.6225 11.4225 29.40625 10.5625 29.40625 L 8.40625 29.40625 z M 391.65625 29.40625 C 390.95875 29.40625 390.4 29.6225 389.96875 30.03125 C 389.54 30.4425 389.3125 30.99 389.3125 31.6875 L 389.3125 87.5 C 389.3125 88.97625 390.11875 89.71875 391.71875 89.71875 L 393.875 89.71875 C 395.39375 89.71875 396.125 88.97625 396.125 87.5 L 396.125 31.6875 C 396.125 30.99 395.9525 30.4425 395.5625 30.03125 C 395.1725 29.6225 394.61375 29.40625 393.875 29.40625 L 391.65625 29.40625 z M 404.53125 29.40625 C 402.93125 29.40625 402.15625 30.17 402.15625 31.6875 L 402.15625 33.90625 C 402.15625 35.505 402.93125 36.3125 404.53125 36.3125 L 438 36.3125 L 399.625 86.25 C 399.42 86.58 399.23625 86.8775 399.09375 87.125 C 398.9475 87.36875 398.875 87.6 398.875 87.84375 C 398.875 88.54375 399.11125 89.045 399.5625 89.3125 C 400.0125 89.58125 400.4775 89.71875 400.96875 89.71875 L 448.78125 89.71875 C 449.47875 89.71875 450.0275 89.48375 450.4375 89.03125 C 450.84875 88.5825 451.0625 88.03125 451.0625 87.375 L 451.0625 85.28125 C 451.0625 83.72375 450.295 82.9375 448.78125 82.9375 L 410.5625 82.9375 L 448.96875 32.875 C 449.17375 32.54625 449.335 32.2375 449.5 31.96875 C 449.66125 31.705 449.75 31.44375 449.75 31.15625 C 449.75 30.41875 449.45875 29.925 448.84375 29.71875 C 448.22875 29.515 447.71375 29.40625 447.34375 29.40625 L 404.53125 29.40625 z M 145.8125 34.90625 C 149.175 34.90625 152.36125 35.5625 155.375 36.875 C 158.39 38.1875 161.01375 39.9525 163.25 42.1875 C 165.48375 44.42375 167.25 47.04875 168.5625 50.0625 C 169.875 53.07625 170.53125 56.2875 170.53125 59.6875 C 170.53125 63.0925 169.875 66.28 168.5625 69.25 C 167.25 72.225 165.48375 74.83875 163.25 77.09375 C 161.01375 79.35 158.39 81.11125 155.375 82.40625 C 152.36125 83.69625 149.175 84.34375 145.8125 84.34375 C 142.4075 84.34375 139.18125 83.69625 136.1875 82.40625 C 133.1925 81.11125 130.60875 79.35 128.375 77.09375 C 126.1375 74.83875 124.3425 72.225 123.03125 69.25 C 121.7175 66.28 121.0625 63.0925 121.0625 59.6875 C 121.0625 56.2875 121.7175 53.07625 123.03125 50.0625 C 124.3425 47.04875 126.1375 44.42375 128.375 42.1875 C 130.60875 39.9525 133.1925 38.1875 136.1875 36.875 C 139.18125 35.5625 142.4075 34.90625 145.8125 34.90625 z M 239.875 35.09375 C 243.1525 35.09375 246.19375 35.75 249 37.0625 C 251.8125 38.375 254.25875 40.1525 256.3125 42.40625 C 258.36125 44.6625 259.9475 47.29 261.09375 50.28125 C 262.24375 53.27625 262.8125 56.44875 262.8125 59.8125 C 262.8125 63.215 262.23125 66.40125 261.0625 69.375 C 259.89125 72.3475 258.30125 74.93125 256.25 77.125 C 254.19625 79.31875 251.74625 81.04125 248.9375 82.3125 C 246.1275 83.5825 243.11125 84.21875 239.875 84.21875 C 236.59 84.21875 233.5825 83.57125 230.8125 82.28125 C 228.0475 80.99 225.635 79.2425 223.625 77.03125 C 221.61625 74.81375 220.06375 72.225 218.9375 69.25 C 217.80875 66.28 217.25 63.11375 217.25 59.75 C 217.25 56.38875 217.80875 53.21375 218.9375 50.21875 C 220.06375 47.22625 221.605 44.61125 223.59375 42.375 C 225.58125 40.14 227.98125 38.375 230.75 37.0625 C 233.51875 35.75 236.54875 35.09375 239.875 35.09375 z M 302.03125 35.09375 C 305.31 35.09375 308.3125 35.75 311.0625 37.0625 C 313.80625 38.375 316.15875 40.1525 318.125 42.40625 C 320.0925 44.6625 321.63125 47.29 322.71875 50.28125 C 323.80375 53.27625 324.34375 56.44875 324.34375 59.8125 C 324.34375 63.215 323.79375 66.40125 322.6875 69.375 C 321.5775 72.3475 320.03375 74.93125 318.0625 77.125 C 316.0925 79.31875 313.75125 81.04125 311 82.3125 C 308.25625 83.5825 305.27 84.21875 302.03125 84.21875 C 298.75 84.21875 295.7075 83.57125 292.9375 82.28125 C 290.1725 80.99 287.7875 79.2425 285.78125 77.03125 C 283.77 74.81375 282.18625 72.225 281.0625 69.25 C 279.93375 66.28 279.375 63.11375 279.375 59.75 C 279.375 56.38875 279.93375 53.21375 281.0625 50.21875 C 282.18625 47.22625 283.76125 44.61125 285.75 42.375 C 287.74 40.14 290.10625 38.375 292.875 37.0625 C 295.645 35.75 298.70875 35.09375 302.03125 35.09375 z "
       transform="matrix(0.8,0,0,-0.8,93.8356,338.8426)"
       id="path22" /></g></svg>