<svg xmlns:svg="http://www.w3.org/2000/svg" xmlns="http://www.w3.org/2000/svg" version="1.1" width="280" height="140" xml:space="preserve"><g transform="matrix(1.25,0,0,-1.25,-218.584,429.6235)"><path d="m318.49 279.42c-0.78-2.75-1.88-5.32-3.3-7.72-1.42-2.4-3.12-4.59-5.1-6.57-1.98-1.98-4.17-3.68-6.57-5.1-2.4-1.42-4.99-2.51-7.77-3.28-2.78-0.77-5.66-1.15-8.62-1.15-4.47 0-8.67 0.85-12.62 2.55-3.95 1.7-7.4 4.01-10.35 6.95-2.95 2.93-5.27 6.38-6.97 10.33-1.7 3.95-2.55 8.16-2.55 12.63 0 2.97 0.39 5.84 1.18 8.63 0.78 2.78 1.88 5.38 3.28 7.78 1.4 2.4 3.09 4.59 5.08 6.58 1.98 1.98 4.18 3.68 6.6 5.1 2.42 1.42 5 2.52 7.75 3.3 2.75 0.78 5.63 1.18 8.63 1.18 4.47 0 8.68-0.86 12.63-2.57 3.95-1.72 7.4-4.05 10.35-7 2.95-2.95 5.28-6.4 7-10.35 1.72-3.95 2.58-8.16 2.58-12.62 0-3-0.39-5.87-1.18-8.62zm61.41 23.5c-0.73 2.58-1.76 5.01-3.08 7.27-1.32 2.27-2.9 4.32-4.75 6.15-1.85 1.83-3.9 3.42-6.15 4.75-2.25 1.33-4.67 2.36-7.27 3.08-2.6 0.72-5.3 1.08-8.1 1.08-4.2 0-8.15-0.75-11.85-2.25-3.7-1.5-6.93-3.59-9.68-6.28-2.75-2.68-4.92-5.87-6.52-9.55-0.39-0.89-0.73-1.81-1.02-2.74-0.46 0.97-0.95 1.92-1.49 2.84-1.65 2.82-3.63 5.38-5.95 7.7-2.32 2.32-4.88 4.3-7.7 5.95-2.82 1.65-5.85 2.93-9.1 3.85-3.25 0.92-6.62 1.38-10.12 1.38-3.5 0-6.87-0.46-10.12-1.37-3.25-0.92-6.28-2.2-9.1-3.85-2.82-1.65-5.38-3.63-7.7-5.95-2.32-2.32-4.3-4.88-5.95-7.7-1.65-2.82-2.92-5.85-3.82-9.1-0.9-3.25-1.35-6.62-1.35-10.12 0-0.55 0.03-1.09 0.05-1.64l-0.75-5.81c0-3.53-0.61-6.85-1.82-9.95-1.22-3.1-2.92-5.8-5.12-8.1-2.2-2.3-4.83-4.11-7.9-5.42-3.07-1.32-6.43-1.97-10.1-1.97-3.6 0-6.92 0.66-9.97 1.97-3.05 1.32-5.68 3.13-7.9 5.43-2.22 2.3-3.95 5-5.2 8.1-1.25 3.1-1.87 6.42-1.87 9.95l0 42.85c0 0.57-0.18 1.01-0.55 1.33-0.37 0.32-0.8 0.48-1.3 0.48l-1.9 0c-0.57 0-1-0.17-1.3-0.52-0.3-0.35-0.45-0.77-0.45-1.27l0-43.25c0-2.8 0.37-5.49 1.1-8.07 0.73-2.58 1.76-5.01 3.08-7.27 1.32-2.27 2.9-4.32 4.75-6.15 1.85-1.83 3.9-3.42 6.15-4.75 2.25-1.33 4.68-2.36 7.28-3.07 2.6-0.72 5.3-1.07 8.1-1.07 4.2 0 8.15 0.75 11.85 2.25 3.7 1.5 6.93 3.59 9.68 6.28 2.75 2.68 4.93 5.87 6.53 9.55 0.53 1.22 0.96 2.48 1.32 3.77 0.45-0.94 0.93-1.87 1.45-2.77 1.65-2.82 3.63-5.38 5.95-7.7 2.32-2.32 4.88-4.3 7.7-5.95 2.82-1.65 5.85-2.92 9.1-3.82 3.25-0.9 6.63-1.35 10.13-1.35 3.5 0 6.88 0.45 10.13 1.35 3.25 0.9 6.28 2.17 9.1 3.82 2.82 1.65 5.38 3.63 7.7 5.95 2.32 2.32 4.3 4.88 5.95 7.7 1.65 2.82 2.93 5.84 3.85 9.07 0.92 3.23 1.38 6.6 1.38 10.1 0 0.91-0.03 1.8-0.09 2.69l0.48 3.71c0 3.53 0.61 6.85 1.83 9.95 1.22 3.1 2.92 5.8 5.13 8.1 2.2 2.3 4.83 4.11 7.9 5.43 3.07 1.32 6.43 1.98 10.1 1.98 3.6 0 6.92-0.66 9.98-1.97 3.05-1.32 5.68-3.12 7.9-5.42 2.22-2.3 3.95-5 5.2-8.1 1.25-3.1 1.88-6.42 1.88-9.95l0-42.85c0-0.57 0.18-1.01 0.55-1.32 0.37-0.32 0.8-0.48 1.3-0.48l1.9 0c0.57 0 1 0.18 1.3 0.53 0.3 0.35 0.45 0.78 0.45 1.28l0 43.25c-0.34 2.79-0.46 5.4-1.19 7.98z" style="fill:none;stroke-width:17;stroke:#fff"/></g></svg>
