<?xml version="1.0" encoding="UTF-8" standalone="no"?>
<!-- Created with Inkscape (http://www.inkscape.org/) -->

<svg
   xmlns:dc="http://purl.org/dc/elements/1.1/"
   xmlns:cc="http://creativecommons.org/ns#"
   xmlns:rdf="http://www.w3.org/1999/02/22-rdf-syntax-ns#"
   xmlns:svg="http://www.w3.org/2000/svg"
   xmlns="http://www.w3.org/2000/svg"
   xmlns:sodipodi="http://sodipodi.sourceforge.net/DTD/sodipodi-0.dtd"
   xmlns:inkscape="http://www.inkscape.org/namespaces/inkscape"
   id="svg2"
   version="1.1"
   inkscape:version="0.48.5 r10040"
   width="280"
   height="140"
   xml:space="preserve"
   sodipodi:docname="unorganizr_logo.svg"><metadata
     id="metadata8"><rdf:RDF><cc:Work
         rdf:about=""><dc:format>image/svg+xml</dc:format><dc:type
           rdf:resource="http://purl.org/dc/dcmitype/StillImage" /><dc:title /></cc:Work></rdf:RDF></metadata><defs
     id="defs6" /><sodipodi:namedview
     pagecolor="#ffffff"
     bordercolor="#666666"
     borderopacity="1"
     objecttolerance="10"
     gridtolerance="10"
     guidetolerance="10"
     inkscape:pageopacity="0"
     inkscape:pageshadow="2"
     inkscape:window-width="1263"
     inkscape:window-height="1061"
     id="namedview4"
     showgrid="false"
     fit-margin-top="12"
     fit-margin-left="12"
     fit-margin-right="12"
     fit-margin-bottom="12"
     inkscape:zoom="2.6222222"
     inkscape:cx="95.243134"
     inkscape:cy="80.810483"
     inkscape:window-x="0"
     inkscape:window-y="1"
     inkscape:window-maximized="0"
     inkscape:current-layer="g10" /><g
     id="g10"
     inkscape:groupmode="layer"
     inkscape:label="unorganizr_logo"
     transform="matrix(1.25,0,0,-1.25,-218.584,429.6235)"><path
       inkscape:connector-curvature="0"
       id="path22"
       style="fill:#373535;fill-opacity:1;fill-rule:nonzero;stroke:none"
       d="m 318.4902,279.4248 c -0.783,-2.75 -1.883,-5.325 -3.299,-7.725 -1.418,-2.4 -3.117,-4.592 -5.101,-6.575 -1.983,-1.983 -4.174,-3.683 -6.575,-5.099 -2.4,-1.418 -4.992,-2.509 -7.775,-3.276 -2.783,-0.767 -5.658,-1.15 -8.625,-1.15 -4.466,0 -8.673,0.85 -12.625,2.551 -3.949,1.699 -7.4,4.015 -10.349,6.949 -2.95,2.933 -5.275,6.375 -6.975,10.325 -1.7,3.95 -2.55,8.158 -2.55,12.625 0,2.967 0.392,5.842 1.175,8.625 0.783,2.783 1.875,5.375 3.275,7.775 1.4,2.4 3.091,4.592 5.075,6.575 1.982,1.983 4.183,3.683 6.599,5.1 2.417,1.417 5,2.517 7.75,3.3 2.75,0.783 5.625,1.175 8.625,1.175 4.467,0 8.676,-0.859 12.625,-2.575 3.951,-1.717 7.4,-4.05 10.35,-7 2.951,-2.95 5.283,-6.4 7,-10.35 1.716,-3.95 2.576,-8.158 2.576,-12.625 0,-3 -0.393,-5.875 -1.176,-8.625 m 61.41,23.5 c -0.733,2.583 -1.758,5.008 -3.076,7.274 -1.316,2.268 -2.899,4.318 -4.75,6.15 -1.85,1.834 -3.899,3.418 -6.149,4.75 -2.25,1.334 -4.675,2.359 -7.275,3.076 -2.6,0.716 -5.301,1.075 -8.1,1.075 -4.201,0 -8.151,-0.75 -11.85,-2.25 -3.7,-1.5 -6.926,-3.592 -9.676,-6.276 -2.75,-2.682 -4.925,-5.866 -6.524,-9.549 -0.388,-0.893 -0.728,-1.807 -1.024,-2.741 -0.461,0.967 -0.946,1.92 -1.486,2.841 -1.65,2.817 -3.633,5.383 -5.949,7.7 -2.319,2.317 -4.885,4.3 -7.701,5.95 -2.817,1.65 -5.85,2.933 -9.1,3.85 -3.25,0.917 -6.625,1.375 -10.125,1.375 -3.5,0 -6.875,-0.458 -10.125,-1.375 -3.25,-0.917 -6.283,-2.2 -9.099,-3.85 -2.817,-1.65 -5.383,-3.633 -7.7,-5.95 -2.317,-2.317 -4.3,-4.883 -5.95,-7.7 -1.65,-2.817 -2.925,-5.85 -3.825,-9.1 -0.9,-3.25 -1.35,-6.625 -1.35,-10.125 0,-0.551 0.031,-1.092 0.053,-1.636 l -0.752,-5.814 c 0,-3.533 -0.609,-6.85 -1.825,-9.949 -1.218,-3.101 -2.925,-5.801 -5.125,-8.101 -2.2,-2.3 -4.834,-4.108 -7.9,-5.425 -3.068,-1.317 -6.434,-1.974 -10.1,-1.974 -3.6,0 -6.925,0.657 -9.975,1.974 -3.05,1.317 -5.684,3.125 -7.9,5.425 -2.218,2.3 -3.95,5 -5.2,8.101 -1.25,3.099 -1.875,6.416 -1.875,9.949 l 0,42.85 c 0,0.567 -0.184,1.008 -0.55,1.325 -0.367,0.317 -0.8,0.475 -1.3,0.475 l -1.9,0 c -0.567,0 -1,-0.175 -1.3,-0.525 -0.3,-0.35 -0.45,-0.775 -0.45,-1.275 l 0,-43.25 c 0,-2.799 0.366,-5.492 1.1,-8.075 0.733,-2.584 1.757,-5.009 3.075,-7.275 1.316,-2.267 2.9,-4.317 4.75,-6.15 1.85,-1.834 3.9,-3.417 6.15,-4.75 2.25,-1.334 4.675,-2.358 7.275,-3.075 2.6,-0.717 5.3,-1.075 8.1,-1.075 4.2,0 8.15,0.75 11.85,2.25 3.7,1.5 6.925,3.592 9.675,6.275 2.75,2.683 4.925,5.867 6.525,9.55 0.528,1.217 0.963,2.478 1.321,3.773 0.451,-0.943 0.926,-1.872 1.453,-2.773 1.65,-2.817 3.633,-5.384 5.95,-7.7 2.317,-2.317 4.883,-4.3 7.7,-5.95 2.816,-1.65 5.849,-2.925 9.099,-3.824 3.25,-0.901 6.625,-1.351 10.125,-1.351 3.5,0 6.875,0.45 10.125,1.351 3.25,0.899 6.283,2.174 9.1,3.824 2.816,1.65 5.382,3.633 7.701,5.95 2.316,2.316 4.299,4.883 5.949,7.7 1.65,2.817 2.934,5.842 3.85,9.075 0.918,3.233 1.375,6.6 1.375,10.1 0,0.906 -0.034,1.802 -0.095,2.691 l 0.479,3.708 c 0,3.534 0.609,6.851 1.826,9.951 1.216,3.1 2.924,5.799 5.125,8.1 2.2,2.3 4.834,4.108 7.9,5.425 3.066,1.317 6.433,1.975 10.1,1.975 3.6,0 6.924,-0.658 9.975,-1.975 3.049,-1.317 5.684,-3.125 7.9,-5.425 2.217,-2.301 3.95,-5 5.2,-8.1 1.25,-3.1 1.875,-6.417 1.875,-9.951 l 0,-42.849 c 0,-0.567 0.183,-1.008 0.55,-1.324 0.367,-0.317 0.799,-0.477 1.299,-0.477 l 1.901,0 c 0.566,0 1,0.176 1.3,0.525 0.299,0.35 0.45,0.776 0.45,1.276 l 0,43.249 c 0,2.801 -0.367,5.493 -1.1,8.076" /><path
       inkscape:connector-curvature="0"
       id="path26"
       style="fill:none;stroke:#3a3a3c;stroke-width:17;stroke-linecap:butt;stroke-linejoin:miter;stroke-miterlimit:10;stroke-opacity:1;stroke-dasharray:none"
       d="m 318.4902,279.4248 c -0.783,-2.75 -1.883,-5.325 -3.299,-7.725 -1.418,-2.4 -3.117,-4.592 -5.101,-6.575 -1.983,-1.983 -4.174,-3.683 -6.575,-5.099 -2.4,-1.418 -4.992,-2.509 -7.775,-3.276 -2.783,-0.767 -5.658,-1.15 -8.625,-1.15 -4.466,0 -8.673,0.85 -12.625,2.551 -3.949,1.699 -7.4,4.015 -10.349,6.949 -2.95,2.933 -5.275,6.375 -6.975,10.325 -1.7,3.95 -2.55,8.158 -2.55,12.625 0,2.967 0.392,5.842 1.175,8.625 0.783,2.783 1.875,5.375 3.275,7.775 1.4,2.4 3.091,4.592 5.075,6.575 1.982,1.983 4.183,3.683 6.599,5.1 2.417,1.417 5,2.517 7.75,3.3 2.75,0.783 5.625,1.175 8.625,1.175 4.467,0 8.676,-0.859 12.625,-2.575 3.951,-1.717 7.4,-4.05 10.35,-7 2.951,-2.95 5.283,-6.4 7,-10.35 1.716,-3.95 2.576,-8.158 2.576,-12.625 0,-3 -0.393,-5.875 -1.176,-8.625 z m 61.41,23.5 c -0.733,2.583 -1.758,5.008 -3.076,7.274 -1.316,2.268 -2.899,4.318 -4.75,6.15 -1.85,1.834 -3.899,3.418 -6.149,4.75 -2.25,1.334 -4.675,2.359 -7.275,3.076 -2.6,0.716 -5.301,1.075 -8.1,1.075 -4.201,0 -8.151,-0.75 -11.85,-2.25 -3.7,-1.5 -6.926,-3.592 -9.676,-6.276 -2.75,-2.682 -4.925,-5.866 -6.524,-9.549 -0.388,-0.893 -0.728,-1.807 -1.024,-2.741 -0.461,0.967 -0.946,1.92 -1.486,2.841 -1.65,2.817 -3.633,5.383 -5.949,7.7 -2.319,2.317 -4.885,4.3 -7.701,5.95 -2.817,1.65 -5.85,2.933 -9.1,3.85 -3.25,0.917 -6.625,1.375 -10.125,1.375 -3.5,0 -6.875,-0.458 -10.125,-1.375 -3.25,-0.917 -6.283,-2.2 -9.099,-3.85 -2.817,-1.65 -5.383,-3.633 -7.7,-5.95 -2.317,-2.317 -4.3,-4.883 -5.95,-7.7 -1.65,-2.817 -2.925,-5.85 -3.825,-9.1 -0.9,-3.25 -1.35,-6.625 -1.35,-10.125 0,-0.551 0.031,-1.092 0.053,-1.636 l -0.752,-5.814 c 0,-3.533 -0.609,-6.85 -1.825,-9.949 -1.218,-3.101 -2.925,-5.801 -5.125,-8.101 -2.2,-2.3 -4.834,-4.108 -7.9,-5.425 -3.068,-1.317 -6.434,-1.974 -10.1,-1.974 -3.6,0 -6.925,0.657 -9.975,1.974 -3.05,1.317 -5.684,3.125 -7.9,5.425 -2.218,2.3 -3.95,5 -5.2,8.101 -1.25,3.099 -1.875,6.416 -1.875,9.949 l 0,42.85 c 0,0.567 -0.184,1.008 -0.55,1.325 -0.367,0.317 -0.8,0.475 -1.3,0.475 l -1.9,0 c -0.567,0 -1,-0.175 -1.3,-0.525 -0.3,-0.35 -0.45,-0.775 -0.45,-1.275 l 0,-43.25 c 0,-2.799 0.366,-5.492 1.1,-8.075 0.733,-2.584 1.757,-5.009 3.075,-7.275 1.316,-2.267 2.9,-4.317 4.75,-6.15 1.85,-1.834 3.9,-3.417 6.15,-4.75 2.25,-1.334 4.675,-2.358 7.275,-3.075 2.6,-0.717 5.3,-1.075 8.1,-1.075 4.2,0 8.15,0.75 11.85,2.25 3.7,1.5 6.925,3.592 9.675,6.275 2.75,2.683 4.925,5.867 6.525,9.55 0.528,1.217 0.963,2.478 1.321,3.773 0.451,-0.943 0.926,-1.872 1.453,-2.773 1.65,-2.817 3.633,-5.384 5.95,-7.7 2.317,-2.317 4.883,-4.3 7.7,-5.95 2.816,-1.65 5.849,-2.925 9.099,-3.824 3.25,-0.901 6.625,-1.351 10.125,-1.351 3.5,0 6.875,0.45 10.125,1.351 3.25,0.899 6.283,2.174 9.1,3.824 2.816,1.65 5.382,3.633 7.701,5.95 2.316,2.316 4.299,4.883 5.949,7.7 1.65,2.817 2.934,5.842 3.85,9.075 0.918,3.233 1.375,6.6 1.375,10.1 0,0.906 -0.034,1.802 -0.095,2.691 l 0.479,3.708 c 0,3.534 0.609,6.851 1.826,9.951 1.216,3.1 2.924,5.799 5.125,8.1 2.2,2.3 4.834,4.108 7.9,5.425 3.066,1.317 6.433,1.975 10.1,1.975 3.6,0 6.924,-0.658 9.975,-1.975 3.049,-1.317 5.684,-3.125 7.9,-5.425 2.217,-2.301 3.95,-5 5.2,-8.1 1.25,-3.1 1.875,-6.417 1.875,-9.951 l 0,-42.849 c 0,-0.567 0.183,-1.008 0.55,-1.324 0.367,-0.317 0.799,-0.477 1.299,-0.477 l 1.901,0 c 0.566,0 1,0.176 1.3,0.525 0.299,0.35 0.45,0.776 0.45,1.276 l 0,43.249 c 0,2.801 -0.367,5.493 -1.1,8.076 z" /></g></svg>